<?xml version="1.0" standalone="no"?><!DOCTYPE svg PUBLIC "-//W3C//DTD SVG 1.1//EN" "http://www.w3.org/Graphics/SVG/1.1/DTD/svg11.dtd"><svg t="1589204329912" class="icon" viewBox="0 0 1024 1024" version="1.1" xmlns="http://www.w3.org/2000/svg" p-id="4318" data-spm-anchor-id="a313x.7781069.0.i20" xmlns:xlink="http://www.w3.org/1999/xlink" width="200" height="200"><defs><style type="text/css"></style></defs><path d="M352.580258 598.374938m-320.717985 0a320.717985 320.717985 0 1 0 641.43597 0 320.717985 320.717985 0 1 0-641.43597 0Z" fill="#b3c6d5" p-id="4319" data-spm-anchor-id="a313x.7781069.0.i24" class="selected"></path><path d="M641.29147 357.782262m-144.355606 0a144.355606 144.355606 0 1 0 288.711211 0 144.355606 144.355606 0 1 0-288.711211 0Z" fill="#f4dbb2" p-id="4320" data-spm-anchor-id="a313x.7781069.0.i14" class=""></path><path d="M641.29147 518.17738A160.395117 160.395117 0 1 1 801.975587 357.782262a160.539618 160.539618 0 0 1-160.684117 160.395118z m0-289.000212a128.316094 128.316094 0 1 0 128.316094 128.316094 128.460594 128.460594 0 0 0-128.316094-127.954844z" fill="#0f4c81" p-id="4321" data-spm-anchor-id="a313x.7781069.0.i17" class=""></path><path d="M614.12545 410.452551a403.877796 403.877796 0 0 0-181.997884 43.350031v28.322021c-36.125026-51.803288-130.555846-76.801806-143.560855-60.690044-9.248007 11.487758 19.724264 61.557045 39.520779 95.51457a186.694137 186.694137 0 0 0-65.603048 78.391307c-17.340013 7.947506-39.231779 12.282509-71.094052 12.065759-27.59952 0-20.157765 75.429055 5.129754 123.25859 23.120017 43.350032 171.449376 133.518098 187.488887 137.275101v131.350596h80.703309l31.212023-72.900303c36.847527 11.198758 87.567064 24.781768 129.327595 24.781768 46.312284 0 100.572074-15.100261 146.017357-28.900022l28.900021 76.874057h77.452057l19.146264-150.20786c49.057786-46.456784 78.824808-106.352078 78.824808-171.882876 0.289-147.245608-176.86813-266.602695-361.467015-266.602695z" fill="#FFFFFF" p-id="4322"></path><path d="M892.071403 1015.329994h-102.595075l-27.88852-73.333804c-46.456784 13.58301-94.286319 25.215268-136.33585 25.215268-39.593029 0-85.327312-11.198758-120.224088-21.675015l-29.767022 69.50455H368.47527v-136.62485c-42.627531-20.808015-162.996119-97.248571-185.610386-139.948352C161.695618 698.224511 149.62986 634.210965 166.175122 606.900445a29.911522 29.911522 0 0 1 25.793269-15.028011 161.478868 161.478868 0 0 0 59.100543-8.453257A202.950399 202.950399 0 0 1 307.712975 512.975376C274.550201 455.175333 263.712693 427.864813 276.789953 411.825302c6.285755-7.803006 16.834262-11.343258 32.223523-10.837508 28.105271 0.939251 74.128554 15.967262 108.37508 42.916531l7.658505-3.973753A421.723559 421.723559 0 0 1 614.12545 394.413039c201.071897 0 377.506526 132.073097 377.506526 282.714457 0 65.458548-28.249771 129.038595-79.475058 179.541381z m-80.486559-32.079024h52.236789l18.062513-141.899104 4.190503-3.901503c47.612785-45.011783 73.767304-101.944825 73.767304-160.250617C959.841953 543.609398 798.435335 426.275312 614.12545 426.275312a390.150286 390.150286 0 0 0-165.813872 37.425528l1.228251 70.949552-29.839272-43.350032c-27.67177-39.737529-93.925069-60.328794-115.600084-58.883793 4.118253 17.267763 28.900021 59.534044 38.509278 76.440556l7.225005 13.005009-12.499259 8.381006a170.293375 170.293375 0 0 0-59.967544 71.672053l-2.456502 5.491004-5.418754 2.528752a177.59063 177.59063 0 0 1-75.573555 13.58301h-0.867001c-6.647005 10.476258-2.962252 60.256544 17.990264 99.705073 19.724264 37.136527 157.505115 122.82509 177.157129 128.894094l12.64376 2.745502-0.433501 12.86051v115.600084h53.392789l32.729274-76.368306 13.72751 4.190503c53.248289 16.184012 93.925069 24.059268 124.631342 24.059268 42.194031 0 92.913568-13.51076 141.393353-28.105271l14.450011-4.335003zM577.133423 69.143301h32.079023v80.197558h-32.079023zM577.133423 4.985254h32.079023v32.079023h-32.079023z" fill="#0f4c81" p-id="4323" data-spm-anchor-id="a313x.7781069.0.i18" class=""></path><path d="M396.652791 626.480209m-44.072533 0a44.072532 44.072532 0 1 0 88.145065 0 44.072532 44.072532 0 1 0-88.145065 0Z" fill="#FFFFFF" p-id="4324"></path><path d="M396.652791 686.375503a60.112044 60.112044 0 1 1 42.555281-17.629013A60.184294 60.184294 0 0 1 396.652791 686.375503z m0-88.217315a28.105271 28.105271 0 1 0 28.03302 28.105271 28.105271 28.105271 0 0 0-28.03302-27.888521zM689.410005 85.182812h32.079023V341.74275h-32.079023zM919.092923 700.825513h-32.079023c0-101.150074-96.887321-182.864884-215.955409-182.864884v-31.790023c136.76935 0 248.034432 96.453821 248.034432 214.654907z" fill="#0f4c81" p-id="4325" data-spm-anchor-id="a313x.7781069.0.i19" class=""></path><path d="M400.698793 149.340859h32.079024v96.237071h-32.079024z" fill="#b3c6d5" p-id="4326" data-spm-anchor-id="a313x.7781069.0.i23" class="selected"></path><path d="M368.61977 181.419883h96.23707v32.079023H368.61977zM929.930431 341.74275h32.079024v96.237071h-32.079024z" fill="#b3c6d5" p-id="4327" data-spm-anchor-id="a313x.7781069.0.i22" class="selected"></path><path d="M897.851408 373.821774h96.23707v32.079023h-96.23707zM897.851408 165.380371a64.158047 64.158047 0 1 1 64.158047-64.230297 64.230297 64.230297 0 0 1-64.158047 64.230297z m0-96.23707a32.079023 32.079023 0 1 0 32.079023 32.006773 32.079023 32.079023 0 0 0-32.079023-32.006773z" fill="#b3c6d5" p-id="4328" data-spm-anchor-id="a313x.7781069.0.i21" class="selected"></path></svg>